<svg xmlns="http://www.w3.org/2000/svg" viewBox="0 0 22.68 22.68"><g transform="translate(1.1 0)"><path fill="#fff" stroke="#008AA6" stroke-linejoin="round" stroke-width=".55" paint-order="stroke fill" d="M17.64,6.89H5A2.17,2.17,0,0,0,2.87,9.06v4.56A2.17,2.17,0,0,0,5,15.79h12.6a2.17,2.17,0,0,0,2.17-2.17V9.06A2.17,2.17,0,0,0,17.64,6.89ZM18,13.58a3.17,3.17,0,0,1-2.24.92h-.14l-1.07-1.06H8.13L7.07,14.5H6.93a3.17,3.17,0,0,1-3.16-3.16A3.11,3.11,0,0,1,4.7,9.11a3.15,3.15,0,0,1,2.23-.93h8.82A3.17,3.17,0,0,1,18,13.58Z"/><polygon fill="#fff" stroke="#008AA6" stroke-linejoin="round" stroke-width=".55" paint-order="stroke fill" points="9.22 10.96 9.22 11.28 8.7 11.73 8.19 11.28 5.2 11.28 5.2 10.96 9.22 10.96"/><polygon fill="#fff" stroke="#008AA6" stroke-linejoin="round" stroke-width=".55" paint-order="stroke fill" points="17.48 10.96 17.48 11.28 14.5 11.28 13.98 11.73 13.46 11.28 13.46 10.96 17.48 10.96"/></g></svg>
